<?xml version="1.0" ?><svg width="150px" height="150px" data-name="Layer 1" id="Layer_1" viewBox="0 0 96 96" xmlns="http://www.w3.org/2000/svg"><defs><style>.cls-1{fill:#404045;}.cls-2{fill:#f7ca98;}.cls-3{fill:#d6af83;}.cls-4{fill:#c0786c;}.cls-10,.cls-5,.cls-6,.cls-8,.cls-9{fill:none;stroke-linecap:round;stroke-linejoin:round;}.cls-5,.cls-6{stroke:#404045;}.cls-6,.cls-8,.cls-9{stroke-width:1.5px;}.cls-7{fill:#f7c185;}.cls-8{stroke:#a08362;}.cls-9{stroke:#e33d27;}.cls-10{stroke:#b2926d;}</style></defs><title/><g data-name="Layer0 4 MEMBER 0 FILL" id="Layer0_4_MEMBER_0_FILL"><path class="cls-1" d="M78.4,40.4a31.72,31.72,0,0,1-7.2-9.75A35.41,35.41,0,0,0,67,18.8,41.82,41.82,0,0,0,48.85,9.2a34.52,34.52,0,0,0-9.6,3.9h-3.9A48.79,48.79,0,0,0,24.4,24.95a45.52,45.52,0,0,0-3,12.75,15.19,15.19,0,0,1-4.65,6,36.79,36.79,0,0,0,3.9,14.1l1.2-2.1L24,59.9V56.6l4.2,7.3V60.5l14.2,7.6,17-4.3v4.05L61.9,63.8v4.5l2.4-4.5v4.4q.67,1.41,3.5,2a28.1,28.1,0,0,1-2-2.9V62.3L67.6,65l4.05,1.95-2.4-3V57.8l5.4,7.35v-2.4l-3-4.8,4.2,1.8A8.62,8.62,0,0,1,78.4,65V58.25l-2.7-4.2h4a10.87,10.87,0,0,1-4.2-3.75,29.85,29.85,0,0,1,0-8.7,7,7,0,0,1,2.85,5.7A14.35,14.35,0,0,0,78.4,40.4Z"/></g><g data-name="Layer0 4 MEMBER 1 FILL" id="Layer0_4_MEMBER_1_FILL"><path class="cls-2" d="M51,72.9V67.75a48.51,48.51,0,0,1-13,0v5.2l-15.47,4c2,5.47,5.4,8.95,10.14,10.45a40.43,40.43,0,0,0,24.12,0c5.6-1.74,8.94-5.19,9.93-10.35Z"/><path class="cls-3" d="M51,72.9V67.75a47,47,0,0,1-12.8-.05v5.2a13.6,13.6,0,0,0,6.5,1.75A12.87,12.87,0,0,0,51,72.9Z"/><path class="cls-4" d="M72.85,93l-2.1-15-4-1.05q-1.5,7.74-9.9,10.35a40.36,40.36,0,0,1-24.1.05Q25.6,85.1,22.6,76.9L18.35,78l-2.1,15Z"/></g><path class="cls-5" d="M66.7,76.95q-1.5,7.74-9.9,10.35a40.36,40.36,0,0,1-24.1.05Q25.6,85.1,22.63,76.9" data-name="Layer0 4 MEMBER 1 1 STROKES" id="Layer0_4_MEMBER_1_1_STROKES"/><path class="cls-6" d="M22.63,76.9,18.35,78l-2.1,15h56.6l-2.1-15-4-1.05m-44.08,0,15.53-4V67.7m12.8.05V72.9l15.75,4" data-name="Layer0 4 MEMBER 1 2 STROKES" id="Layer0_4_MEMBER_1_2_STROKES"/><g data-name="Layer0 4 MEMBER 2 FILL" id="Layer0_4_MEMBER_2_FILL"><path class="cls-2" d="M67.15,41.1l-3.35-.7a106.17,106.17,0,0,0-.55-14.25Q54.8,17.3,44.65,17q-10.15.3-18.6,9.15A106.17,106.17,0,0,0,25.5,40.4l-3.3.7a18,18,0,0,0,0,5.9A8.62,8.62,0,0,0,24,51h2.4q.35,2.3.85,4.55,2.9,13.4,17.4,16.2,14.5-2.8,17.4-16.2.5-2.25.9-4.55H65.3a10.8,10.8,0,0,0,2-4.55A13.6,13.6,0,0,0,67.15,41.1Z"/></g><path class="cls-6" d="M63.25,26.15Q54.8,17.3,44.65,17q-10.15.3-18.6,9.15A106.17,106.17,0,0,0,25.5,40.4l-3.3.7a18,18,0,0,0,0,5.9A8.62,8.62,0,0,0,24,51h2.4q.35,2.3.85,4.55,2.9,13.4,17.4,16.2,14.5-2.8,17.4-16.2.5-2.25.9-4.55H65.3a10.8,10.8,0,0,0,2-4.55,13.6,13.6,0,0,0-.2-5.35l-3.35-.7A106.17,106.17,0,0,0,63.25,26.15Z" data-name="Layer0 4 MEMBER 2 1 STROKES" id="Layer0_4_MEMBER_2_1_STROKES"/><g data-name="Layer0 4 MEMBER 3 FILL" id="Layer0_4_MEMBER_3_FILL"><path class="cls-7" d="M33.35,51.75a3.08,3.08,0,0,0,3-3,2.93,2.93,0,0,0-.9-2.15,2.85,2.85,0,0,0-2.1-.85,2.91,2.91,0,0,0-3,3,2.85,2.85,0,0,0,.85,2.1A2.93,2.93,0,0,0,33.35,51.75Z"/></g><g data-name="Layer0 4 MEMBER 4 FILL" id="Layer0_4_MEMBER_4_FILL"><path class="cls-7" d="M56.05,51.75a3.08,3.08,0,0,0,3-3,2.93,2.93,0,0,0-.9-2.15,2.85,2.85,0,0,0-2.1-.85,2.91,2.91,0,0,0-3,3,2.85,2.85,0,0,0,.85,2.1A2.93,2.93,0,0,0,56.05,51.75Z"/></g><g data-name="Layer0 4 MEMBER 5 FILL" id="Layer0_4_MEMBER_5_FILL"><path class="cls-1" d="M35,43.75a2.05,2.05,0,0,0,1.35.5,1.7,1.7,0,0,0,1.25-.5,1.87,1.87,0,0,0,.6-1.35,1.71,1.71,0,0,0-.6-1.3,1.62,1.62,0,0,0-1.25-.55A2,2,0,0,0,35,41.1a2.15,2.15,0,0,0-.4,1.3A2.38,2.38,0,0,0,35,43.75Z"/></g><path class="cls-5" d="M31.5,39.8A10.52,10.52,0,0,1,41,39.45" data-name="Layer0 4 MEMBER 5 1 STROKES" id="Layer0_4_MEMBER_5_1_STROKES"/><g data-name="Layer0 4 MEMBER 6 FILL" id="Layer0_4_MEMBER_6_FILL"><path class="cls-1" d="M54.4,43.75A1.87,1.87,0,0,0,55,42.4a2,2,0,0,0-1.85-1.85,1.73,1.73,0,0,0-1.35.55,2,2,0,0,0-.45,1.3,2.19,2.19,0,0,0,.45,1.35,1.94,1.94,0,0,0,2.6,0Z"/></g><path class="cls-5" d="M48.7,39.45q4.4-2.1,9.45.4" data-name="Layer0 4 MEMBER 6 1 STROKES" id="Layer0_4_MEMBER_6_1_STROKES"/><path class="cls-8" d="M41.25,52.85a7,7,0,0,0,3.45.85,11.57,11.57,0,0,0,3.4-.85" data-name="Layer0 4 MEMBER 7 1 STROKES" id="Layer0_4_MEMBER_7_1_STROKES"/><path class="cls-9" d="M37.45,58.1a22,22,0,0,0,7.15,1.25,18,18,0,0,0,6.9-1.25" data-name="Layer0 4 MEMBER 8 1 STROKES" id="Layer0_4_MEMBER_8_1_STROKES"/><path class="cls-10" d="M41.45,62.15a9.56,9.56,0,0,0,3.2.7,7,7,0,0,0,3.1-.7" data-name="Layer0 4 MEMBER 9 1 STROKES" id="Layer0_4_MEMBER_9_1_STROKES"/><g data-name="Layer0 4 MEMBER 10 FILL" id="Layer0_4_MEMBER_10_FILL"><path class="cls-1" d="M49.6,24.95l4.5,12,8.1,7v6.55l4.35,6.45q8.45-16.08,0-22.5l-5.1-16.35-15.3-5.7-14,6.6q-3.9,0-7.8,13.8L21.55,47,22,53.15l3.15-8.55L28,47.9V33.35l7.05-8.25,1.95-3Z"/></g></svg>