<svg xmlns="http://www.w3.org/2000/svg" xmlns:xlink="http://www.w3.org/1999/xlink" viewBox="0 0 135 40" width="135" height="40"><defs><style>.cls-1{fill:#3667f6;}.cls-2{fill:#3667f6;}</style><symbol id="logo-sign-small" data-name="logo-sign-small" viewBox="0 0 28 27.06"><path class="cls-1" d="M0,2.39C0,3.56.07,4.68.17,5.78H15.4v2.8h-.16c-3.51,0-5.44,1.49-5.44,4.2A4.2,4.2,0,0,0,14,17c2.71,0,4.2-1.93,4.2-5.44V.24A41.57,41.57,0,0,0,0,2.39ZM7,12.78a6.92,6.92,0,0,1,1.35-4.2H.54C2.53,20.15,9.75,27.06,14,27.06a7.68,7.68,0,0,0,4.2-1.67v-7A6.86,6.86,0,0,1,14,19.78,7,7,0,0,1,7,12.78Zm14,10A28.91,28.91,0,0,0,27.46,8.58H21ZM21,.63V5.78h6.83c.1-1.1.17-2.22.17-3.39A52,52,0,0,0,21,.63Z"/></symbol></defs><g id="logo-sign-white"><use id="logo-sign-small-3" data-name="logo-sign-small" width="28" height="27.06" transform="translate(6 6.47)" xlink:href="#logo-sign-small"/><g id="dto-big"><path class="cls-2" d="M42.87,8.85h2.4v4.37h2.64v2.32H45.27v4.11c0,2.32.9,3.4,2.64,3.54v2.32c-2.94-.12-5-1.9-5-5.84Z"/><path class="cls-2" d="M55.9,13a6.19,6.19,0,0,1,6.3,6.08,7.18,7.18,0,0,1-.07,1.1H52.26a3.48,3.48,0,0,0,3.64,3.1,3.89,3.89,0,0,0,2.72-1l2.26,1.05A6.43,6.43,0,0,1,56,25.64,6.31,6.31,0,0,1,55.9,13Zm3.74,5.23A3.83,3.83,0,0,0,56,15.35a3.75,3.75,0,0,0-3.71,2.91Z"/><path class="cls-2" d="M64.08,21.77h2.29c0,1.05,1.1,1.71,2.55,1.71s2.34-.66,2.34-1.61c0-2.76-7-.66-7-5.4,0-2,2-3.44,4.52-3.44s4.48,1.31,4.48,3.66H71c0-1-1-1.54-2.23-1.54s-2.07.59-2.07,1.49c0,2.45,6.91.56,7,5.28,0,2.49-2.06,3.72-4.79,3.72C66.35,25.64,64.08,24.27,64.08,21.77Z"/><path class="cls-2" d="M75.73,8.85h2.4v4.37h2.63v2.32H78.13v4.11c0,2.32.9,3.4,2.63,3.54v2.32c-2.93-.12-5-1.9-5-5.84Z"/><path class="cls-2" d="M82.65,21.77h2.29c0,1.05,1.1,1.71,2.54,1.71s2.35-.66,2.35-1.61c0-2.76-7-.66-7-5.4,0-2,2-3.44,4.52-3.44s4.47,1.31,4.47,3.66H89.54c0-1-1-1.54-2.23-1.54s-2.07.59-2.07,1.49c0,2.45,6.91.56,7,5.28,0,2.49-2.06,3.72-4.79,3.72C84.92,25.64,82.65,24.27,82.65,21.77Z"/><path class="cls-2" d="M109,15.34a3.83,3.83,0,0,1,2.81,1.19l1.62-1.62A6.16,6.16,0,0,0,109,13a6.31,6.31,0,1,0,0,12.61,6.21,6.21,0,0,0,4.45-1.87l-1.64-1.64A3.77,3.77,0,0,1,109,23.31a4,4,0,0,1,0-8Zm12.29-2.57a6.39,6.39,0,0,0-6.38,6.39c0,3.08,2,6.38,7.54,6.38h1.62V23.15h-1.62c-3.32,0-5.14-1.42-5.14-4a4,4,0,0,1,4-4c2.58,0,4,1.82,4,5.14v5.13h2.4V20.31C127.66,14.75,124.36,12.77,121.27,12.77Z"/><path class="cls-2" d="M96.58,24.2a1.46,1.46,0,1,1,2.91,0,1.46,1.46,0,1,1-2.91,0Z"/></g></g></svg>