<svg width="1223" height="764" viewBox="0 0 1223 764" fill="none" xmlns="http://www.w3.org/2000/svg">
<line x1="254.5" y1="6.55671e-08" x2="254.5" y2="610" stroke="black" stroke-width="3"/>
<line x1="253" y1="608.5" x2="1223" y2="608.5" stroke="black" stroke-width="3"/>
<line x1="247" y1="366" x2="262" y2="366" stroke="black" stroke-width="2"/>
<line x1="247" y1="124" x2="262" y2="124" stroke="black" stroke-width="2"/>
<line x1="247" y1="205" x2="262" y2="205" stroke="black" stroke-width="2"/>
<line x1="247" y1="43" x2="262" y2="43" stroke="black" stroke-width="2"/>
<line x1="247" y1="528" x2="262" y2="528" stroke="black" stroke-width="2"/>
<line x1="247" y1="286" x2="262" y2="286" stroke="black" stroke-width="2"/>
<line x1="247" y1="447" x2="262" y2="447" stroke="black" stroke-width="2"/>
<path d="M222.059 42.623H223.816C225.672 42.623 226.824 43.5605 226.824 45.084C226.824 46.4609 225.594 47.4375 223.875 47.4375C222.098 47.4375 220.984 46.5098 220.848 45.1621H218.748C218.885 47.5938 220.838 49.2637 223.875 49.2637C226.814 49.2637 229.051 47.5742 229.051 45.1133C229.051 43.1406 227.684 41.8418 225.564 41.6953V41.6562C227.312 41.3438 228.465 40.084 228.465 38.3262C228.465 36.1582 226.521 34.6445 223.855 34.6445C221.062 34.6445 219.197 36.2363 219.031 38.707H221.092C221.219 37.3203 222.234 36.4414 223.758 36.4414C225.428 36.4414 226.326 37.3105 226.326 38.6191C226.326 39.9473 225.281 40.9043 223.758 40.9043H222.059V42.623ZM236.15 49.2637C239.188 49.2637 241.316 47.2617 241.316 44.3711C241.316 41.6367 239.373 39.6543 236.668 39.6543C235.291 39.6543 234.139 40.1914 233.523 41.0801H233.475L233.865 36.7539H240.496V34.9082H232.107L231.365 42.877H233.367C233.914 41.9492 234.969 41.3926 236.189 41.3926C237.947 41.3926 239.178 42.6621 239.178 44.4297C239.178 46.1973 237.947 47.4375 236.17 47.4375C234.598 47.4375 233.396 46.4805 233.24 45.084H231.15C231.277 47.5449 233.338 49.2637 236.15 49.2637Z" fill="black" fill-opacity="0.5"/>
<path d="M221.59 123.623H223.348C225.203 123.623 226.355 124.561 226.355 126.084C226.355 127.461 225.125 128.438 223.406 128.438C221.629 128.438 220.516 127.51 220.379 126.162H218.279C218.416 128.594 220.369 130.264 223.406 130.264C226.346 130.264 228.582 128.574 228.582 126.113C228.582 124.141 227.215 122.842 225.096 122.695V122.656C226.844 122.344 227.996 121.084 227.996 119.326C227.996 117.158 226.053 115.645 223.387 115.645C220.594 115.645 218.729 117.236 218.562 119.707H220.623C220.75 118.32 221.766 117.441 223.289 117.441C224.959 117.441 225.857 118.311 225.857 119.619C225.857 120.947 224.812 121.904 223.289 121.904H221.59V123.623ZM235.77 130.264C239.148 130.264 241.131 127.422 241.131 122.93C241.131 118.467 239.139 115.645 235.77 115.645C232.41 115.645 230.389 118.477 230.389 122.939C230.389 127.432 232.391 130.264 235.77 130.264ZM235.77 128.428C233.758 128.428 232.605 126.338 232.605 122.939C232.605 119.59 233.777 117.48 235.77 117.48C237.762 117.48 238.924 119.58 238.924 122.939C238.924 126.348 237.781 128.428 235.77 128.428Z" fill="black" fill-opacity="0.5"/>
<path d="M219.402 201.039V201.059H221.473V201.029C221.473 199.564 222.635 198.451 224.178 198.451C225.643 198.451 226.775 199.447 226.775 200.697C226.775 201.801 226.326 202.543 224.607 204.33L219.52 209.516V211H229.158V209.154H222.469V209.105L225.994 205.561C228.055 203.451 228.934 202.23 228.934 200.59C228.934 198.354 226.932 196.645 224.246 196.645C221.443 196.645 219.402 198.5 219.402 201.039ZM236.15 211.264C239.188 211.264 241.316 209.262 241.316 206.371C241.316 203.637 239.373 201.654 236.668 201.654C235.291 201.654 234.139 202.191 233.523 203.08H233.475L233.865 198.754H240.496V196.908H232.107L231.365 204.877H233.367C233.914 203.949 234.969 203.393 236.189 203.393C237.947 203.393 239.178 204.662 239.178 206.43C239.178 208.197 237.947 209.438 236.17 209.438C234.598 209.438 233.396 208.48 233.24 207.084H231.15C231.277 209.545 233.338 211.264 236.15 211.264Z" fill="black" fill-opacity="0.5"/>
<path d="M218.934 282.039V282.059H221.004V282.029C221.004 280.564 222.166 279.451 223.709 279.451C225.174 279.451 226.307 280.447 226.307 281.697C226.307 282.801 225.857 283.543 224.139 285.33L219.051 290.516V292H228.689V290.154H222V290.105L225.525 286.561C227.586 284.451 228.465 283.23 228.465 281.59C228.465 279.354 226.463 277.645 223.777 277.645C220.975 277.645 218.934 279.5 218.934 282.039ZM235.77 292.264C239.148 292.264 241.131 289.422 241.131 284.93C241.131 280.467 239.139 277.645 235.77 277.645C232.41 277.645 230.389 280.477 230.389 284.939C230.389 289.432 232.391 292.264 235.77 292.264ZM235.77 290.428C233.758 290.428 232.605 288.338 232.605 284.939C232.605 281.59 233.777 279.48 235.77 279.48C237.762 279.48 238.924 281.58 238.924 284.939C238.924 288.348 237.781 290.428 235.77 290.428Z" fill="black" fill-opacity="0.5"/>
<path d="M225.525 373H227.664V358.908H225.506L221.795 361.545V363.693L225.477 361.076H225.525V373ZM236.15 373.264C239.188 373.264 241.316 371.262 241.316 368.371C241.316 365.637 239.373 363.654 236.668 363.654C235.291 363.654 234.139 364.191 233.523 365.08H233.475L233.865 360.754H240.496V358.908H232.107L231.365 366.877H233.367C233.914 365.949 234.969 365.393 236.189 365.393C237.947 365.393 239.178 366.662 239.178 368.43C239.178 370.197 237.947 371.438 236.17 371.438C234.598 371.438 233.396 370.48 233.24 369.084H231.15C231.277 371.545 233.338 373.264 236.15 373.264Z" fill="black" fill-opacity="0.5"/>
<path d="M225.057 454H227.195V439.908H225.037L221.326 442.545V444.693L225.008 442.076H225.057V454ZM235.77 454.264C239.148 454.264 241.131 451.422 241.131 446.93C241.131 442.467 239.139 439.645 235.77 439.645C232.41 439.645 230.389 442.477 230.389 446.939C230.389 451.432 232.391 454.264 235.77 454.264ZM235.77 452.428C233.758 452.428 232.605 450.338 232.605 446.939C232.605 443.59 233.777 441.48 235.77 441.48C237.762 441.48 238.924 443.58 238.924 446.939C238.924 450.348 237.781 452.428 235.77 452.428Z" fill="black" fill-opacity="0.5"/>
<path d="M236.15 535.264C239.188 535.264 241.316 533.262 241.316 530.371C241.316 527.637 239.373 525.654 236.668 525.654C235.291 525.654 234.139 526.191 233.523 527.08H233.475L233.865 522.754H240.496V520.908H232.107L231.365 528.877H233.367C233.914 527.949 234.969 527.393 236.189 527.393C237.947 527.393 239.178 528.662 239.178 530.43C239.178 532.197 237.947 533.438 236.17 533.438C234.598 533.438 233.396 532.48 233.24 531.084H231.15C231.277 533.545 233.338 535.264 236.15 535.264Z" fill="black" fill-opacity="0.5"/>
<path d="M235.77 616.264C239.148 616.264 241.131 613.422 241.131 608.93C241.131 604.467 239.139 601.645 235.77 601.645C232.41 601.645 230.389 604.477 230.389 608.939C230.389 613.432 232.391 616.264 235.77 616.264ZM235.77 614.428C233.758 614.428 232.605 612.338 232.605 608.939C232.605 605.59 233.777 603.48 235.77 603.48C237.762 603.48 238.924 605.58 238.924 608.939C238.924 612.348 237.781 614.428 235.77 614.428Z" fill="black" fill-opacity="0.5"/>
<path d="M324 589C324 583.477 328.477 579 334 579H420C425.523 579 430 583.477 430 589V607H324V589Z" fill="#B5B3B3"/>
<path d="M571 81C571 75.4772 575.477 71 581 71H662C667.523 71 672 75.4772 672 81V607H571V81Z" fill="#F96969"/>
<path d="M815 598C815 592.477 819.477 588 825 588H907C912.523 588 917 592.477 917 598V607H815V598Z" fill="#B5B3B3"/>
<path d="M1060 501C1060 495.477 1064.48 491 1070 491H1154C1159.52 491 1164 495.477 1164 501V607H1060V501Z" fill="#F96969"/>
<path d="M66.7646 299.496C60.4951 299.496 56.5693 303.7 56.5693 310.438C56.5693 317.162 60.4951 321.366 66.7646 321.366C73.0195 321.366 76.96 317.162 76.96 310.438C76.96 303.7 73.0195 299.496 66.7646 299.496ZM66.7646 303.188C70.2217 303.188 72.4336 306 72.4336 310.438C72.4336 314.862 70.2217 317.66 66.7646 317.66C63.293 317.66 61.0811 314.862 61.0811 310.438C61.0811 306 63.3076 303.188 66.7646 303.188ZM80.5928 321H84.8701V308.52H87.8877V305.37H84.7676V304.33C84.7676 303.217 85.3828 302.602 86.7891 302.602C87.2139 302.602 87.6387 302.631 87.9463 302.689V299.862C87.4482 299.76 86.5547 299.672 85.7637 299.672C82.043 299.672 80.5928 301.107 80.5928 304.184V305.37H78.4541V308.52H80.5928V321ZM91.2861 321H95.5635V308.52H98.5811V305.37H95.4609V304.33C95.4609 303.217 96.0762 302.602 97.4824 302.602C97.9072 302.602 98.332 302.631 98.6396 302.689V299.862C98.1416 299.76 97.248 299.672 96.457 299.672C92.7363 299.672 91.2861 301.107 91.2861 304.184V305.37H89.1475V308.52H91.2861V321ZM110.593 314.276V310.541H100.969V314.276H110.593ZM118.605 303.319H122.37C124.567 303.319 125.944 304.638 125.944 306.688C125.944 308.783 124.641 310.058 122.414 310.058H118.605V303.319ZM118.605 313.266H122.15L126.091 321H131.101L126.647 312.606C129.079 311.654 130.485 309.311 130.485 306.601C130.485 302.426 127.702 299.862 122.839 299.862H114.182V321H118.605V313.266ZM140.095 321.337C144.841 321.337 147.873 318.305 147.873 313.134C147.873 308.036 144.797 304.96 140.095 304.96C135.393 304.96 132.316 308.051 132.316 313.134C132.316 318.29 135.349 321.337 140.095 321.337ZM140.095 318.07C137.985 318.07 136.652 316.298 136.652 313.148C136.652 310.028 138.015 308.227 140.095 308.227C142.175 308.227 143.522 310.028 143.522 313.148C143.522 316.298 142.189 318.07 140.095 318.07ZM156.149 318.158C154.699 318.158 153.732 317.426 153.732 316.254C153.732 315.141 154.641 314.423 156.237 314.306L159.548 314.101V315.243C159.548 316.942 158.01 318.158 156.149 318.158ZM154.743 321.249C156.706 321.249 158.654 320.268 159.533 318.598H159.621V321H163.752V310.204C163.752 307.04 161.13 304.96 157.102 304.96C152.941 304.96 150.349 307.055 150.188 310.102H154.099C154.304 308.944 155.314 308.153 156.911 308.153C158.522 308.153 159.548 309.003 159.548 310.468V311.508L155.593 311.742C151.682 311.977 149.484 313.632 149.484 316.488C149.484 319.315 151.755 321.249 154.743 321.249ZM172.351 321.249C174.665 321.249 176.481 320.033 177.243 318.305H177.316V321H181.535V299.862H177.258V307.992H177.17C176.408 306.249 174.65 305.048 172.38 305.048C168.439 305.048 165.949 308.139 165.949 313.119C165.949 318.144 168.425 321.249 172.351 321.249ZM173.801 308.476C175.925 308.476 177.287 310.292 177.287 313.148C177.287 316.02 175.925 317.807 173.801 317.807C171.647 317.807 170.329 316.034 170.329 313.148C170.329 310.277 171.647 308.476 173.801 308.476ZM40.002 335.862V357H48.0732C54.416 357 58.1514 353.06 58.1514 346.351C58.1514 339.642 54.416 335.862 48.0732 335.862H40.002ZM44.4258 339.51H47.5459C51.4424 339.51 53.6396 341.941 53.6396 346.365C53.6396 350.936 51.501 353.338 47.5459 353.338H44.4258V339.51ZM67.6875 344.124C69.5918 344.124 70.8955 345.501 70.9834 347.508H64.3184C64.4648 345.545 65.8125 344.124 67.6875 344.124ZM71.042 352.195C70.6465 353.396 69.4453 354.173 67.8779 354.173C65.6953 354.173 64.2744 352.635 64.2744 350.394V350.13H75.0996V348.826C75.0996 344.051 72.2139 340.96 67.6436 340.96C63 340.96 60.0703 344.212 60.0703 349.222C60.0703 354.246 62.9707 357.337 67.8047 357.337C71.6865 357.337 74.499 355.271 74.9678 352.195H71.042ZM91.4326 341.297H86.9648L83.7129 353.221H83.625L80.3584 341.297H75.7734L81.208 357H86.042L91.4326 341.297ZM93 357H97.2773V341.297H93V357ZM95.1387 339.568C96.4277 339.568 97.4238 338.587 97.4238 337.356C97.4238 336.111 96.4277 335.145 95.1387 335.145C93.8496 335.145 92.8535 336.111 92.8535 337.356C92.8535 338.587 93.8496 339.568 95.1387 339.568ZM106.198 354.158C104.748 354.158 103.781 353.426 103.781 352.254C103.781 351.141 104.689 350.423 106.286 350.306L109.597 350.101V351.243C109.597 352.942 108.059 354.158 106.198 354.158ZM104.792 357.249C106.755 357.249 108.703 356.268 109.582 354.598H109.67V357H113.801V346.204C113.801 343.04 111.179 340.96 107.15 340.96C102.99 340.96 100.397 343.055 100.236 346.102H104.147C104.353 344.944 105.363 344.153 106.96 344.153C108.571 344.153 109.597 345.003 109.597 346.468V347.508L105.642 347.742C101.73 347.977 99.5332 349.632 99.5332 352.488C99.5332 355.315 101.804 357.249 104.792 357.249ZM117.712 337.679V341.297H115.5V344.52H117.712V352.767C117.712 355.828 119.147 357.059 122.839 357.059C123.703 357.059 124.436 356.985 124.875 356.883V353.733C124.611 353.777 124.216 353.807 123.835 353.807C122.575 353.807 121.989 353.235 121.989 352.034V344.52H124.89V341.297H121.989V337.679H117.712ZM127.307 357H131.584V341.297H127.307V357ZM129.445 339.568C130.734 339.568 131.73 338.587 131.73 337.356C131.73 336.111 130.734 335.145 129.445 335.145C128.156 335.145 127.16 336.111 127.16 337.356C127.16 338.587 128.156 339.568 129.445 339.568ZM141.647 357.337C146.394 357.337 149.426 354.305 149.426 349.134C149.426 344.036 146.35 340.96 141.647 340.96C136.945 340.96 133.869 344.051 133.869 349.134C133.869 354.29 136.901 357.337 141.647 357.337ZM141.647 354.07C139.538 354.07 138.205 352.298 138.205 349.148C138.205 346.028 139.567 344.227 141.647 344.227C143.728 344.227 145.075 346.028 145.075 349.148C145.075 352.298 143.742 354.07 141.647 354.07ZM151.638 357H155.915V347.991C155.915 345.955 157.131 344.549 159.05 344.549C160.969 344.549 161.936 345.721 161.936 347.771V357H166.213V346.878C166.213 343.201 164.25 341.004 160.764 341.004C158.347 341.004 156.691 342.146 155.856 344.095H155.769V341.297H151.638V357ZM168.659 345.911C168.659 348.226 170.183 349.778 173.156 350.452L176.057 351.097C177.463 351.434 177.99 351.873 177.99 352.664C177.99 353.689 177.009 354.334 175.383 354.334C173.684 354.334 172.644 353.572 172.438 352.254H168.264C168.498 355.315 171.076 357.337 175.266 357.337C179.411 357.337 182.253 355.301 182.253 352.21C182.253 349.866 180.979 348.621 177.829 347.918L174.826 347.273C173.449 346.951 172.775 346.424 172.775 345.647C172.775 344.637 173.742 343.963 175.222 343.963C176.804 343.963 177.814 344.739 177.902 345.999H181.843C181.784 342.952 179.221 340.96 175.28 340.96C171.252 340.96 168.659 342.923 168.659 345.911Z" fill="black" fill-opacity="0.7"/>
<path d="M676.736 707V689.51H682.859V685.862H666.204V689.51H672.312V707H676.736ZM684.339 707H688.616V691.297H684.339V707ZM686.478 689.568C687.767 689.568 688.763 688.587 688.763 687.356C688.763 686.111 687.767 685.145 686.478 685.145C685.188 685.145 684.192 686.111 684.192 687.356C684.192 688.587 685.188 689.568 686.478 689.568ZM691.473 707H695.75V697.522C695.75 695.765 696.849 694.534 698.475 694.534C700.057 694.534 701.009 695.53 701.009 697.215V707H705.125V697.464C705.125 695.721 706.194 694.534 707.82 694.534C709.476 694.534 710.384 695.53 710.384 697.347V707H714.661V696.277C714.661 693.113 712.596 691.004 709.52 691.004C707.22 691.004 705.345 692.249 704.642 694.227H704.554C704.026 692.176 702.444 691.004 700.174 691.004C698.035 691.004 696.351 692.249 695.691 694.139H695.604V691.297H691.473V707ZM724.417 694.124C726.321 694.124 727.625 695.501 727.713 697.508H721.048C721.194 695.545 722.542 694.124 724.417 694.124ZM727.771 702.195C727.376 703.396 726.175 704.173 724.607 704.173C722.425 704.173 721.004 702.635 721.004 700.394V700.13H731.829V698.826C731.829 694.051 728.943 690.96 724.373 690.96C719.729 690.96 716.8 694.212 716.8 699.222C716.8 704.246 719.7 707.337 724.534 707.337C728.416 707.337 731.229 705.271 731.697 702.195H727.771ZM744.778 707V685.862H740.354V707H744.778ZM747.928 707H752.205V697.991C752.205 695.955 753.421 694.549 755.34 694.549C757.259 694.549 758.226 695.721 758.226 697.771V707H762.503V696.878C762.503 693.201 760.54 691.004 757.054 691.004C754.637 691.004 752.981 692.146 752.146 694.095H752.059V691.297H747.928V707ZM780.887 707C785.398 707 788.196 704.671 788.196 700.95C788.196 698.152 786.087 696.058 783.216 695.838V695.721C785.457 695.384 787.186 693.45 787.186 691.136C787.186 687.898 784.695 685.862 780.726 685.862H771.526V707H780.887ZM775.95 689.158H779.583C781.648 689.158 782.835 690.125 782.835 691.824C782.835 693.611 781.487 694.651 779.129 694.651H775.95V689.158ZM775.95 703.704V697.566H779.656C782.264 697.566 783.685 698.621 783.685 700.599C783.685 702.62 782.308 703.704 779.759 703.704H775.95ZM797.396 694.124C799.3 694.124 800.604 695.501 800.691 697.508H794.026C794.173 695.545 795.521 694.124 797.396 694.124ZM800.75 702.195C800.354 703.396 799.153 704.173 797.586 704.173C795.403 704.173 793.982 702.635 793.982 700.394V700.13H804.808V698.826C804.808 694.051 801.922 690.96 797.352 690.96C792.708 690.96 789.778 694.212 789.778 699.222C789.778 704.246 792.679 707.337 797.513 707.337C801.395 707.337 804.207 705.271 804.676 702.195H800.75ZM812.85 707.249C815.164 707.249 816.98 706.033 817.742 704.305H817.815V707H822.034V685.862H817.757V693.992H817.669C816.907 692.249 815.149 691.048 812.879 691.048C808.938 691.048 806.448 694.139 806.448 699.119C806.448 704.144 808.924 707.249 812.85 707.249ZM814.3 694.476C816.424 694.476 817.786 696.292 817.786 699.148C817.786 702.02 816.424 703.807 814.3 703.807C812.146 703.807 810.828 702.034 810.828 699.148C810.828 696.277 812.146 694.476 814.3 694.476Z" fill="black" fill-opacity="0.7"/>
<path d="M324.062 548.862V570H328.486V563.335H332.441C336.895 563.335 339.985 560.435 339.985 556.099C339.985 551.748 336.997 548.862 332.661 548.862H324.062ZM328.486 552.363H331.489C334.023 552.363 335.488 553.711 335.488 556.113C335.488 558.53 334.009 559.878 331.475 559.878H328.486V552.363ZM342.344 570H346.621V548.862H342.344V570ZM355.571 567.158C354.121 567.158 353.154 566.426 353.154 565.254C353.154 564.141 354.062 563.423 355.659 563.306L358.97 563.101V564.243C358.97 565.942 357.432 567.158 355.571 567.158ZM354.165 570.249C356.128 570.249 358.076 569.268 358.955 567.598H359.043V570H363.174V559.204C363.174 556.04 360.552 553.96 356.523 553.96C352.363 553.96 349.771 556.055 349.609 559.102H353.521C353.726 557.944 354.736 557.153 356.333 557.153C357.944 557.153 358.97 558.003 358.97 559.468V560.508L355.015 560.742C351.104 560.977 348.906 562.632 348.906 565.488C348.906 568.315 351.177 570.249 354.165 570.249ZM380.21 560.142C380.02 556.582 377.324 553.96 373.076 553.96C368.374 553.96 365.371 557.095 365.371 562.134C365.371 567.261 368.374 570.337 373.105 570.337C377.236 570.337 380.005 567.949 380.225 564.243H376.24C375.977 565.957 374.863 566.982 373.149 566.982C371.025 566.982 369.707 565.225 369.707 562.134C369.707 559.102 371.025 557.314 373.135 557.314C374.893 557.314 375.991 558.486 376.24 560.142H380.21ZM389.336 557.124C391.24 557.124 392.544 558.501 392.632 560.508H385.967C386.113 558.545 387.461 557.124 389.336 557.124ZM392.69 565.195C392.295 566.396 391.094 567.173 389.526 567.173C387.344 567.173 385.923 565.635 385.923 563.394V563.13H396.748V561.826C396.748 557.051 393.862 553.96 389.292 553.96C384.648 553.96 381.719 557.212 381.719 562.222C381.719 567.246 384.619 570.337 389.453 570.337C393.335 570.337 396.147 568.271 396.616 565.195H392.69ZM408.291 570.249C412.246 570.249 414.663 567.202 414.663 562.148C414.663 557.08 412.231 554.048 408.276 554.048C406.035 554.048 404.292 555.161 403.428 557.021H403.34V548.862H399.062V570H403.281V567.305H403.369C404.233 569.136 405.991 570.249 408.291 570.249ZM406.812 557.476C408.936 557.476 410.283 559.292 410.283 562.148C410.283 565.02 408.95 566.807 406.812 566.807C404.731 566.807 403.325 564.99 403.325 562.148C403.325 559.336 404.746 557.476 406.812 557.476ZM424.097 570.337C428.843 570.337 431.875 567.305 431.875 562.134C431.875 557.036 428.799 553.96 424.097 553.96C419.395 553.96 416.318 557.051 416.318 562.134C416.318 567.29 419.351 570.337 424.097 570.337ZM424.097 567.07C421.987 567.07 420.654 565.298 420.654 562.148C420.654 559.028 422.017 557.227 424.097 557.227C426.177 557.227 427.524 559.028 427.524 562.148C427.524 565.298 426.191 567.07 424.097 567.07Z" fill="black" fill-opacity="0.7"/>
<path d="M812.062 554.862V576H816.486V569.335H820.441C824.895 569.335 827.985 566.435 827.985 562.099C827.985 557.748 824.997 554.862 820.661 554.862H812.062ZM816.486 558.363H819.489C822.023 558.363 823.488 559.711 823.488 562.113C823.488 564.53 822.009 565.878 819.475 565.878H816.486V558.363ZM830.344 576H834.621V554.862H830.344V576ZM843.571 573.158C842.121 573.158 841.154 572.426 841.154 571.254C841.154 570.141 842.062 569.423 843.659 569.306L846.97 569.101V570.243C846.97 571.942 845.432 573.158 843.571 573.158ZM842.165 576.249C844.128 576.249 846.076 575.268 846.955 573.598H847.043V576H851.174V565.204C851.174 562.04 848.552 559.96 844.523 559.96C840.363 559.96 837.771 562.055 837.609 565.102H841.521C841.726 563.944 842.736 563.153 844.333 563.153C845.944 563.153 846.97 564.003 846.97 565.468V566.508L843.015 566.742C839.104 566.977 836.906 568.632 836.906 571.488C836.906 574.315 839.177 576.249 842.165 576.249ZM868.21 566.142C868.02 562.582 865.324 559.96 861.076 559.96C856.374 559.96 853.371 563.095 853.371 568.134C853.371 573.261 856.374 576.337 861.105 576.337C865.236 576.337 868.005 573.949 868.225 570.243H864.24C863.977 571.957 862.863 572.982 861.149 572.982C859.025 572.982 857.707 571.225 857.707 568.134C857.707 565.102 859.025 563.314 861.135 563.314C862.893 563.314 863.991 564.486 864.24 566.142H868.21ZM877.336 563.124C879.24 563.124 880.544 564.501 880.632 566.508H873.967C874.113 564.545 875.461 563.124 877.336 563.124ZM880.69 571.195C880.295 572.396 879.094 573.173 877.526 573.173C875.344 573.173 873.923 571.635 873.923 569.394V569.13H884.748V567.826C884.748 563.051 881.862 559.96 877.292 559.96C872.648 559.96 869.719 563.212 869.719 568.222C869.719 573.246 872.619 576.337 877.453 576.337C881.335 576.337 884.147 574.271 884.616 571.195H880.69ZM896.291 576.249C900.246 576.249 902.663 573.202 902.663 568.148C902.663 563.08 900.231 560.048 896.276 560.048C894.035 560.048 892.292 561.161 891.428 563.021H891.34V554.862H887.062V576H891.281V573.305H891.369C892.233 575.136 893.991 576.249 896.291 576.249ZM894.812 563.476C896.936 563.476 898.283 565.292 898.283 568.148C898.283 571.02 896.95 572.807 894.812 572.807C892.731 572.807 891.325 570.99 891.325 568.148C891.325 565.336 892.746 563.476 894.812 563.476ZM912.097 576.337C916.843 576.337 919.875 573.305 919.875 568.134C919.875 563.036 916.799 559.96 912.097 559.96C907.395 559.96 904.318 563.051 904.318 568.134C904.318 573.29 907.351 576.337 912.097 576.337ZM912.097 573.07C909.987 573.07 908.654 571.298 908.654 568.148C908.654 565.028 910.017 563.227 912.097 563.227C914.177 563.227 915.524 565.028 915.524 568.148C915.524 571.298 914.191 573.07 912.097 573.07Z" fill="black" fill-opacity="0.7"/>
<path d="M587.465 56.3379H577.885V51.0059H586.923V47.6074H577.885V42.5098H587.465V38.8623H573.461V60H587.465V56.3379ZM591.435 40.6787V44.2969H589.223V47.5195H591.435V55.7666C591.435 58.8281 592.87 60.0586 596.562 60.0586C597.426 60.0586 598.158 59.9854 598.598 59.8828V56.7334C598.334 56.7773 597.938 56.8066 597.558 56.8066C596.298 56.8066 595.712 56.2354 595.712 55.0342V47.5195H598.612V44.2969H595.712V40.6787H591.435ZM601.059 60H605.336V51.0352C605.336 48.9697 606.522 47.5488 608.544 47.5488C610.492 47.5488 611.488 48.7793 611.488 50.8008V60H615.766V49.8926C615.766 46.2598 613.773 44.0039 610.287 44.0039C607.899 44.0039 606.186 45.1172 605.351 47.0947H605.263V38.8623H601.059V60ZM624.569 57.1582C623.119 57.1582 622.152 56.4258 622.152 55.2539C622.152 54.1406 623.061 53.4229 624.657 53.3057L627.968 53.1006V54.2432C627.968 55.9424 626.43 57.1582 624.569 57.1582ZM623.163 60.249C625.126 60.249 627.074 59.2676 627.953 57.5977H628.041V60H632.172V49.2041C632.172 46.04 629.55 43.96 625.521 43.96C621.361 43.96 618.769 46.0547 618.607 49.1016H622.519C622.724 47.9443 623.734 47.1533 625.331 47.1533C626.942 47.1533 627.968 48.0029 627.968 49.4678V50.5078L624.013 50.7422C620.102 50.9766 617.904 52.6318 617.904 55.4883C617.904 58.3154 620.175 60.249 623.163 60.249ZM634.94 60H639.218V50.9912C639.218 48.9551 640.434 47.5488 642.353 47.5488C644.271 47.5488 645.238 48.7207 645.238 50.7715V60H649.516V49.8779C649.516 46.2012 647.553 44.0039 644.066 44.0039C641.649 44.0039 639.994 45.1465 639.159 47.0947H639.071V44.2969H634.94V60ZM659.433 60.3369C664.179 60.3369 667.211 57.3047 667.211 52.1338C667.211 47.0361 664.135 43.96 659.433 43.96C654.73 43.96 651.654 47.0508 651.654 52.1338C651.654 57.29 654.687 60.3369 659.433 60.3369ZM659.433 57.0703C657.323 57.0703 655.99 55.2979 655.99 52.1484C655.99 49.0283 657.353 47.2266 659.433 47.2266C661.513 47.2266 662.86 49.0283 662.86 52.1484C662.86 55.2979 661.527 57.0703 659.433 57.0703ZM669.525 60H673.803V38.8623H669.525V60Z" fill="black" fill-opacity="0.7"/>
<path d="M1075.46 477.338H1065.88V472.006H1074.92V468.607H1065.88V463.51H1075.46V459.862H1061.46V481H1075.46V477.338ZM1079.43 461.679V465.297H1077.22V468.52H1079.43V476.767C1079.43 479.828 1080.87 481.059 1084.56 481.059C1085.43 481.059 1086.16 480.985 1086.6 480.883V477.733C1086.33 477.777 1085.94 477.807 1085.56 477.807C1084.3 477.807 1083.71 477.235 1083.71 476.034V468.52H1086.61V465.297H1083.71V461.679H1079.43ZM1089.06 481H1093.34V472.035C1093.34 469.97 1094.52 468.549 1096.54 468.549C1098.49 468.549 1099.49 469.779 1099.49 471.801V481H1103.77V470.893C1103.77 467.26 1101.77 465.004 1098.29 465.004C1095.9 465.004 1094.19 466.117 1093.35 468.095H1093.26V459.862H1089.06V481ZM1112.57 478.158C1111.12 478.158 1110.15 477.426 1110.15 476.254C1110.15 475.141 1111.06 474.423 1112.66 474.306L1115.97 474.101V475.243C1115.97 476.942 1114.43 478.158 1112.57 478.158ZM1111.16 481.249C1113.13 481.249 1115.07 480.268 1115.95 478.598H1116.04V481H1120.17V470.204C1120.17 467.04 1117.55 464.96 1113.52 464.96C1109.36 464.96 1106.77 467.055 1106.61 470.102H1110.52C1110.72 468.944 1111.73 468.153 1113.33 468.153C1114.94 468.153 1115.97 469.003 1115.97 470.468V471.508L1112.01 471.742C1108.1 471.977 1105.9 473.632 1105.9 476.488C1105.9 479.315 1108.17 481.249 1111.16 481.249ZM1122.94 481H1127.22V471.991C1127.22 469.955 1128.43 468.549 1130.35 468.549C1132.27 468.549 1133.24 469.721 1133.24 471.771V481H1137.52V470.878C1137.52 467.201 1135.55 465.004 1132.07 465.004C1129.65 465.004 1127.99 466.146 1127.16 468.095H1127.07V465.297H1122.94V481ZM1147.43 481.337C1152.18 481.337 1155.21 478.305 1155.21 473.134C1155.21 468.036 1152.13 464.96 1147.43 464.96C1142.73 464.96 1139.65 468.051 1139.65 473.134C1139.65 478.29 1142.69 481.337 1147.43 481.337ZM1147.43 478.07C1145.32 478.07 1143.99 476.298 1143.99 473.148C1143.99 470.028 1145.35 468.227 1147.43 468.227C1149.51 468.227 1150.86 470.028 1150.86 473.148C1150.86 476.298 1149.53 478.07 1147.43 478.07ZM1157.53 481H1161.8V459.862H1157.53V481Z" fill="black" fill-opacity="0.7"/>
<path d="M952.379 642.469C957.462 642.469 960.948 639.949 960.948 636.287C960.948 633.504 958.941 631.351 955.982 630.853V630.765C958.443 630.179 960.084 628.289 960.084 625.989C960.084 622.737 956.92 620.394 952.379 620.394C947.853 620.394 944.659 622.752 944.659 625.975C944.659 628.304 946.314 630.193 948.775 630.765V630.853C945.831 631.336 943.81 633.489 943.81 636.272C943.81 639.935 947.252 642.469 952.379 642.469ZM952.379 639.246C950.05 639.246 948.424 637.854 948.424 635.95C948.424 634.046 950.05 632.654 952.379 632.654C954.708 632.654 956.319 634.046 956.319 635.95C956.319 637.854 954.708 639.246 952.379 639.246ZM952.379 629.432C950.416 629.432 949.039 628.201 949.039 626.517C949.039 624.832 950.416 623.587 952.379 623.587C954.327 623.587 955.719 624.817 955.719 626.517C955.719 628.201 954.327 629.432 952.379 629.432ZM969.605 642H973.883V633.035C973.883 630.97 975.069 629.549 977.091 629.549C979.039 629.549 980.035 630.779 980.035 632.801V642H984.312V631.893C984.312 628.26 982.32 626.004 978.834 626.004C976.446 626.004 974.732 627.117 973.897 629.095H973.81V620.862H969.605V642ZM987.052 642H991.329V633.226C991.329 631.014 992.56 629.725 994.669 629.725C995.284 629.725 995.87 629.827 996.222 629.974V626.209C995.929 626.121 995.504 626.048 995.006 626.048C993.16 626.048 991.827 627.132 991.271 629.124H991.183V626.297H987.052V642ZM997.716 630.911C997.716 633.226 999.239 634.778 1002.21 635.452L1005.11 636.097C1006.52 636.434 1007.05 636.873 1007.05 637.664C1007.05 638.689 1006.07 639.334 1004.44 639.334C1002.74 639.334 1001.7 638.572 1001.5 637.254H997.32C997.555 640.315 1000.13 642.337 1004.32 642.337C1008.47 642.337 1011.31 640.301 1011.31 637.21C1011.31 634.866 1010.04 633.621 1006.89 632.918L1003.88 632.273C1002.51 631.951 1001.83 631.424 1001.83 630.647C1001.83 629.637 1002.8 628.963 1004.28 628.963C1005.86 628.963 1006.87 629.739 1006.96 630.999H1010.9C1010.84 627.952 1008.28 625.96 1004.34 625.96C1000.31 625.96 997.716 627.923 997.716 630.911ZM1016.23 642.176C1017.54 642.176 1018.59 641.121 1018.59 639.817C1018.59 638.499 1017.54 637.459 1016.23 637.459C1014.91 637.459 1013.87 638.499 1013.87 639.817C1013.87 641.121 1014.91 642.176 1016.23 642.176Z" fill="black" fill-opacity="0.7"/>
<path d="M467.225 642H471.429V638.235H474.183V634.69H471.429V620.862H465.188C460.853 627.249 458.553 630.955 456.707 634.471V638.235H467.225V642ZM460.589 634.705C462.303 631.395 464.148 628.509 467.225 623.997H467.312V634.822H460.589V634.705ZM482.547 642H486.824V633.035C486.824 630.97 488.011 629.549 490.032 629.549C491.98 629.549 492.977 630.779 492.977 632.801V642H497.254V631.893C497.254 628.26 495.262 626.004 491.775 626.004C489.388 626.004 487.674 627.117 486.839 629.095H486.751V620.862H482.547V642ZM499.993 642H504.271V633.226C504.271 631.014 505.501 629.725 507.61 629.725C508.226 629.725 508.812 629.827 509.163 629.974V626.209C508.87 626.121 508.445 626.048 507.947 626.048C506.102 626.048 504.769 627.132 504.212 629.124H504.124V626.297H499.993V642ZM510.657 630.911C510.657 633.226 512.181 634.778 515.154 635.452L518.055 636.097C519.461 636.434 519.988 636.873 519.988 637.664C519.988 638.689 519.007 639.334 517.381 639.334C515.682 639.334 514.642 638.572 514.437 637.254H510.262C510.496 640.315 513.074 642.337 517.264 642.337C521.409 642.337 524.251 640.301 524.251 637.21C524.251 634.866 522.977 633.621 519.827 632.918L516.824 632.273C515.447 631.951 514.773 631.424 514.773 630.647C514.773 629.637 515.74 628.963 517.22 628.963C518.802 628.963 519.812 629.739 519.9 630.999H523.841C523.782 627.952 521.219 625.96 517.278 625.96C513.25 625.96 510.657 627.923 510.657 630.911ZM529.173 642.176C530.477 642.176 531.531 641.121 531.531 639.817C531.531 638.499 530.477 637.459 529.173 637.459C527.854 637.459 526.814 638.499 526.814 639.817C526.814 641.121 527.854 642.176 529.173 642.176Z" fill="black" fill-opacity="0.7"/>
</svg>
