<?xml version="1.0" encoding="UTF-8" standalone="no"?>
<!DOCTYPE svg PUBLIC "-//W3C//DTD SVG 1.1//EN" "http://www.w3.org/Graphics/SVG/1.1/DTD/svg11.dtd">
<svg width="363px" height="215px" version="1.1" xmlns="http://www.w3.org/2000/svg" xmlns:xlink="http://www.w3.org/1999/xlink" xml:space="preserve" xmlns:serif="http://www.serif.com/" style="fill-rule:evenodd;clip-rule:evenodd;">
    <g transform="matrix(1,0,0,1,-129.735,-289.048)">
        <rect x="129.735" y="289.048" width="362.531" height="214.555" style="fill:white;"/>
    </g>
    <g transform="matrix(1,0,0,1,45.3537,162.847)">
        <path d="M0,0L315.53,0L0,0Z" style="fill:rgb(236,178,31);fill-rule:nonzero;"/>
    </g>
    <g transform="matrix(1,0,0,1,45.3535,162.846)">
        <path d="M0,0L315.531,0" style="fill:none;fill-rule:nonzero;stroke:rgb(236,178,31);stroke-width:0.55px;"/>
    </g>
    <g transform="matrix(1,0,0,1,45.3537,158.909)">
        <path d="M0,3.938L0,0L0,3.938Z" style="fill:rgb(236,178,31);fill-rule:nonzero;"/>
    </g>
    <g transform="matrix(0,-1,-1,0,47.322,160.878)">
        <path d="M-1.968,1.968L1.968,1.968" style="fill:none;fill-rule:nonzero;stroke:rgb(236,178,31);stroke-width:0.55px;"/>
    </g>
    <g transform="matrix(0,-1,-1,0,69.8598,160.878)">
        <path d="M-1.968,1.968L1.968,1.968" style="fill:none;fill-rule:nonzero;stroke:black;stroke-width:0.55px;"/>
    </g>
    <g transform="matrix(0,-1,-1,0,92.3976,160.878)">
        <path d="M-1.968,1.968L1.968,1.968" style="fill:none;fill-rule:nonzero;stroke:black;stroke-width:0.55px;"/>
    </g>
    <g transform="matrix(0,-1,-1,0,114.936,160.878)">
        <path d="M-1.968,1.968L1.968,1.968" style="fill:none;fill-rule:nonzero;stroke:black;stroke-width:0.55px;"/>
    </g>
    <g transform="matrix(0,-1,-1,0,137.474,160.878)">
        <path d="M-1.968,1.968L1.968,1.968" style="fill:none;fill-rule:nonzero;stroke:black;stroke-width:0.55px;"/>
    </g>
    <g transform="matrix(0,-1,-1,0,160.012,160.878)">
        <path d="M-1.968,1.968L1.968,1.968" style="fill:none;fill-rule:nonzero;stroke:black;stroke-width:0.55px;"/>
    </g>
    <g transform="matrix(0,-1,-1,0,182.549,160.878)">
        <path d="M-1.968,1.968L1.968,1.968" style="fill:none;fill-rule:nonzero;stroke:black;stroke-width:0.55px;"/>
    </g>
    <g transform="matrix(0,-1,-1,0,205.087,160.878)">
        <path d="M-1.968,1.968L1.968,1.968" style="fill:none;fill-rule:nonzero;stroke:black;stroke-width:0.55px;"/>
    </g>
    <g transform="matrix(0,-1,-1,0,227.625,160.878)">
        <path d="M-1.968,1.968L1.968,1.968" style="fill:none;fill-rule:nonzero;stroke:black;stroke-width:0.55px;"/>
    </g>
    <g transform="matrix(0,-1,-1,0,250.163,160.878)">
        <path d="M-1.968,1.968L1.968,1.968" style="fill:none;fill-rule:nonzero;stroke:black;stroke-width:0.55px;"/>
    </g>
    <g transform="matrix(0,-1,-1,0,272.701,160.878)">
        <path d="M-1.968,1.968L1.968,1.968" style="fill:none;fill-rule:nonzero;stroke:black;stroke-width:0.55px;"/>
    </g>
    <g transform="matrix(0,-1,-1,0,295.239,160.878)">
        <path d="M-1.968,1.968L1.968,1.968" style="fill:none;fill-rule:nonzero;stroke:black;stroke-width:0.55px;"/>
    </g>
    <g transform="matrix(0,-1,-1,0,317.777,160.878)">
        <path d="M-1.968,1.968L1.968,1.968" style="fill:none;fill-rule:nonzero;stroke:black;stroke-width:0.55px;"/>
    </g>
    <g transform="matrix(0,-1,-1,0,340.315,160.878)">
        <path d="M-1.968,1.968L1.968,1.968" style="fill:none;fill-rule:nonzero;stroke:black;stroke-width:0.55px;"/>
    </g>
    <g transform="matrix(0,-1,-1,0,362.853,160.878)">
        <path d="M-1.968,1.968L1.968,1.968" style="fill:none;fill-rule:nonzero;stroke:black;stroke-width:0.55px;"/>
    </g>
    <g transform="matrix(1,0,0,1,45.3537,5.3558)">
        <path d="M0,157.491L0,0L0,157.491Z" style="fill:rgb(236,178,31);fill-rule:nonzero;"/>
    </g>
    <g transform="matrix(0,-1,-1,0,124.099,84.1007)">
        <path d="M-78.746,78.746L78.746,78.746" style="fill:none;fill-rule:nonzero;stroke:rgb(236,178,31);stroke-width:0.55px;"/>
    </g>
    <g transform="matrix(1,0,0,1,45.3537,162.847)">
        <path d="M0,0L315.53,0L0,0Z" style="fill:rgb(236,178,31);fill-rule:nonzero;"/>
    </g>
    <g transform="matrix(1,0,0,1,45.3535,162.846)">
        <path d="M0,0L315.531,0" style="fill:none;fill-rule:nonzero;stroke:rgb(236,178,31);stroke-width:0.55px;"/>
    </g>
    <g transform="matrix(1,0,0,1,45.3537,145.347)">
        <path d="M0,0L315.53,0L0,0Z" style="fill:rgb(236,178,31);fill-rule:nonzero;"/>
    </g>
    <g transform="matrix(1,0,0,1,45.3535,145.347)">
        <path d="M0,0L315.531,0" style="fill:none;fill-rule:nonzero;stroke:rgb(236,178,31);stroke-width:0.55px;"/>
    </g>
    <g transform="matrix(1,0,0,1,45.3537,127.849)">
        <path d="M0,0L315.53,0L0,0Z" style="fill:rgb(236,178,31);fill-rule:nonzero;"/>
    </g>
    <g transform="matrix(1,0,0,1,45.3535,127.848)">
        <path d="M0,0L315.531,0" style="fill:none;fill-rule:nonzero;stroke:rgb(236,178,31);stroke-width:0.55px;"/>
    </g>
    <g transform="matrix(1,0,0,1,45.3537,110.349)">
        <path d="M0,0L315.53,0L0,0Z" style="fill:rgb(236,178,31);fill-rule:nonzero;"/>
    </g>
    <g transform="matrix(1,0,0,1,45.3535,110.349)">
        <path d="M0,0L315.531,0" style="fill:none;fill-rule:nonzero;stroke:rgb(236,178,31);stroke-width:0.55px;"/>
    </g>
    <g transform="matrix(1,0,0,1,45.3537,92.8502)">
        <path d="M0,0L315.53,0L0,0Z" style="fill:rgb(236,178,31);fill-rule:nonzero;"/>
    </g>
    <g transform="matrix(1,0,0,1,45.3535,92.8501)">
        <path d="M0,0L315.531,0" style="fill:none;fill-rule:nonzero;stroke:rgb(236,178,31);stroke-width:0.55px;"/>
    </g>
    <g transform="matrix(1,0,0,1,45.3537,75.3515)">
        <path d="M0,0L315.53,0L0,0Z" style="fill:rgb(236,178,31);fill-rule:nonzero;"/>
    </g>
    <g transform="matrix(1,0,0,1,45.3535,75.3513)">
        <path d="M0,0L315.531,0" style="fill:none;fill-rule:nonzero;stroke:rgb(236,178,31);stroke-width:0.55px;"/>
    </g>
    <g transform="matrix(1,0,0,1,45.3537,57.8519)">
        <path d="M0,0L315.53,0L0,0Z" style="fill:rgb(236,178,31);fill-rule:nonzero;"/>
    </g>
    <g transform="matrix(1,0,0,1,45.3535,57.8518)">
        <path d="M0,0L315.531,0" style="fill:none;fill-rule:nonzero;stroke:rgb(236,178,31);stroke-width:0.55px;"/>
    </g>
    <g transform="matrix(1,0,0,1,45.3537,40.3532)">
        <path d="M0,0L315.53,0L0,0Z" style="fill:rgb(236,178,31);fill-rule:nonzero;"/>
    </g>
    <g transform="matrix(1,0,0,1,45.3535,40.3529)">
        <path d="M0,0L315.531,0" style="fill:none;fill-rule:nonzero;stroke:rgb(236,178,31);stroke-width:0.55px;"/>
    </g>
    <g transform="matrix(1,0,0,1,45.3537,22.8545)">
        <path d="M0,0L315.53,0L0,0Z" style="fill:rgb(236,178,31);fill-rule:nonzero;"/>
    </g>
    <g transform="matrix(1,0,0,1,45.3535,22.8541)">
        <path d="M0,0L315.531,0" style="fill:none;fill-rule:nonzero;stroke:rgb(236,178,31);stroke-width:0.55px;"/>
    </g>
    <g transform="matrix(1,0,0,1,45.3537,5.3549)">
        <path d="M0,0L315.53,0L0,0Z" style="fill:rgb(236,178,31);fill-rule:nonzero;"/>
    </g>
    <g transform="matrix(1,0,0,1,45.3535,5.3552)">
        <path d="M0,0L315.531,0" style="fill:none;fill-rule:nonzero;stroke:rgb(236,178,31);stroke-width:0.55px;"/>
    </g>
    <g transform="matrix(1,0,0,1,-129.735,-265.231)">
        <rect x="200.782" y="340.757" width="16.227" height="87.32" style="fill:rgb(41,44,115);stroke:black;stroke-width:0.27px;"/>
    </g>
    <g transform="matrix(1,0,0,1,-129.735,-267.855)">
        <rect x="223.319" y="340.757" width="16.227" height="89.944" style="fill:rgb(41,44,115);stroke:black;stroke-width:0.27px;"/>
    </g>
    <g transform="matrix(1,0,0,1,-129.735,-269.78)">
        <rect x="245.857" y="340.757" width="16.227" height="91.869" style="fill:rgb(41,44,115);stroke:black;stroke-width:0.27px;"/>
    </g>
    <g transform="matrix(1,0,0,1,-129.735,-276.955)">
        <rect x="268.396" y="340.757" width="16.227" height="99.044" style="fill:rgb(41,44,115);stroke:black;stroke-width:0.27px;"/>
    </g>
    <g transform="matrix(1,0,0,1,-129.735,-282.73)">
        <rect x="290.933" y="340.757" width="16.227" height="104.819" style="fill:rgb(41,44,115);stroke:black;stroke-width:0.27px;"/>
    </g>
    <g transform="matrix(1,0,0,1,-129.735,-291.654)">
        <rect x="313.471" y="340.757" width="16.227" height="113.743" style="fill:rgb(41,44,115);stroke:black;stroke-width:0.27px;"/>
    </g>
    <g transform="matrix(1,0,0,1,-129.735,-291.654)">
        <rect x="336.009" y="340.757" width="16.227" height="113.743" style="fill:rgb(41,44,115);stroke:black;stroke-width:0.27px;"/>
    </g>
    <g transform="matrix(1,0,0,1,-129.735,-294.279)">
        <rect x="358.547" y="340.757" width="16.227" height="116.368" style="fill:rgb(41,44,115);stroke:black;stroke-width:0.27px;"/>
    </g>
    <g transform="matrix(1,0,0,1,-129.735,-298.654)">
        <rect x="381.085" y="340.757" width="16.227" height="120.743" style="fill:rgb(41,44,115);stroke:black;stroke-width:0.27px;"/>
    </g>
    <g transform="matrix(1,0,0,1,-129.735,-303.554)">
        <rect x="403.622" y="340.757" width="16.227" height="125.643" style="fill:rgb(152,56,57);stroke:black;stroke-width:0.27px;"/>
    </g>
    <g transform="matrix(1,0,0,1,-129.735,-313.353)">
        <rect x="426.161" y="340.757" width="16.227" height="135.442" style="fill:rgb(41,44,115);stroke:black;stroke-width:0.27px;"/>
    </g>
    <g transform="matrix(1,0,0,1,-129.735,-316.328)">
        <rect x="448.699" y="340.757" width="16.227" height="138.417" style="fill:rgb(41,44,115);stroke:black;stroke-width:0.27px;"/>
    </g>
    <g transform="matrix(1,0,0,1,-129.735,-321.752)">
        <rect x="471.237" y="340.757" width="16.227" height="143.841" style="fill:rgb(41,44,115);"/>
    </g>
    <g transform="matrix(1,0,0,1,341.501,162.846)">
        <rect x="0" y="-143.841" width="16.227" height="143.841" style="fill:none;stroke:black;stroke-width:0.27px;"/>
    </g>
    <g transform="matrix(1,0,0,1,-129.735,-288.397)">
        <text x="152.913px" y="456.231px" style="font-family:'ArialMT', 'Arial', sans-serif;font-size:9.878px;">0<tspan x="157.889px 160.116px 165.092px " y="456.231px 456.231px 456.231px ">.00</tspan></text>
    </g>
    <g transform="matrix(1,0,0,1,-129.735,-288.397)">
        <text x="152.913px" y="439.281px" style="font-family:'ArialMT', 'Arial', sans-serif;font-size:9.878px;">1<tspan x="157.889px 160.116px 165.092px " y="439.281px 439.281px 439.281px ">.00</tspan></text>
    </g>
    <g transform="matrix(1,0,0,1,-129.735,-288.397)">
        <text x="152.913px" y="421.778px" style="font-family:'ArialMT', 'Arial', sans-serif;font-size:9.878px;">2<tspan x="157.889px 160.116px 165.092px " y="421.778px 421.778px 421.778px ">.00</tspan></text>
    </g>
    <g transform="matrix(1,0,0,1,-129.735,-288.397)">
        <text x="152.913px" y="404.275px" style="font-family:'ArialMT', 'Arial', sans-serif;font-size:9.878px;">3<tspan x="157.889px 160.116px 165.092px " y="404.275px 404.275px 404.275px ">.00</tspan></text>
    </g>
    <g transform="matrix(1,0,0,1,-129.735,-288.397)">
        <text x="152.913px" y="386.772px" style="font-family:'ArialMT', 'Arial', sans-serif;font-size:9.878px;">4<tspan x="157.889px 160.116px 165.092px " y="386.772px 386.772px 386.772px ">.00</tspan></text>
    </g>
    <g transform="matrix(1,0,0,1,-129.735,-288.397)">
        <text x="152.913px" y="369.269px" style="font-family:'ArialMT', 'Arial', sans-serif;font-size:9.878px;">5<tspan x="157.889px 160.116px 165.092px " y="369.269px 369.269px 369.269px ">.00</tspan></text>
    </g>
    <g transform="matrix(1,0,0,1,-129.735,-288.397)">
        <text x="152.913px" y="351.766px" style="font-family:'ArialMT', 'Arial', sans-serif;font-size:9.878px;">6<tspan x="157.889px 160.116px 165.092px " y="351.766px 351.766px 351.766px ">.00</tspan></text>
    </g>
    <g transform="matrix(1,0,0,1,-129.735,-288.397)">
        <text x="152.913px" y="334.263px" style="font-family:'ArialMT', 'Arial', sans-serif;font-size:9.878px;">7<tspan x="157.889px 160.116px 165.092px " y="334.263px 334.263px 334.263px ">.00</tspan></text>
    </g>
    <g transform="matrix(1,0,0,1,-129.735,-288.397)">
        <text x="152.913px" y="316.76px" style="font-family:'ArialMT', 'Arial', sans-serif;font-size:9.878px;">8<tspan x="157.889px 160.116px 165.092px " y="316.76px 316.76px 316.76px ">.00</tspan></text>
    </g>
    <g transform="matrix(1,0,0,1,-129.735,-288.397)">
        <text x="152.913px" y="299.257px" style="font-family:'ArialMT', 'Arial', sans-serif;font-size:9.878px;">9<tspan x="157.889px 160.116px 165.092px " y="299.257px 299.257px 299.257px ">.00</tspan></text>
    </g>
    <g transform="matrix(0.642786,-0.766046,0.766046,0.642786,-129.735,-288.397)">
        <text x="-76.188px" y="664.185px" style="font-family:'ArialMT', 'Arial', sans-serif;font-size:8.692px;">D<tspan x="-70.177px -65.609px -61.041px -54.066px -49.498px -46.87px " y="664.185px 664.185px 664.185px 664.185px 664.185px 664.185px ">enmark</tspan></text>
    </g>
    <g transform="matrix(0.642786,-0.766046,0.766046,0.642786,-129.735,-288.397)">
        <text x="-72.26px" y="646.08px" style="font-family:'ArialMT', 'Arial', sans-serif;font-size:8.692px;">U<tspan x="-67.065px -62.35px " y="646.08px 646.08px ">SA</tspan></text>
    </g>
    <g transform="matrix(0.642786,-0.766046,0.766046,0.642786,-129.735,-288.397)">
        <text x="-96.389px" y="629.391px" style="font-family:'ArialMT', 'Arial', sans-serif;font-size:8.692px;">F<tspan x="-91.591px -89.208px -84.885px -80.562px -76.727px " y="629.391px 629.391px 629.391px 629.391px 629.391px ">rance</tspan></text>
    </g>
    <g transform="matrix(0.642786,-0.766046,0.766046,0.642786,-129.735,-288.397)">
        <text x="-113.4px" y="611.911px" style="font-family:'ArialMT', 'Arial', sans-serif;font-size:8.692px;">C<tspan x="-107.628px -103.299px -98.971px -94.642px -90.313px " y="611.911px 611.911px 611.911px 611.911px 611.911px ">anada</tspan></text>
    </g>
    <g transform="matrix(0.642786,-0.766046,0.766046,0.642786,-129.735,-288.397)">
        <text x="-132.557px" y="595.074px" style="font-family:'ArialMT', 'Arial', sans-serif;font-size:8.692px;">A<tspan x="-126.958px -122.322px -118.174px -115.957px -113.261px -108.625px -106.892px -105.159px " y="595.074px 595.074px 595.074px 595.074px 595.074px 595.074px 595.074px 595.074px ">ustralia</tspan></text>
    </g>
    <g transform="matrix(0.642786,-0.766046,0.766046,0.642786,-129.735,-288.397)">
        <text x="-145.717px" y="576.473px" style="font-family:'ArialMT', 'Arial', sans-serif;font-size:8.692px;">N<tspan x="-139.657px -135.039px -132.361px -126.301px -121.683px " y="576.473px 576.473px 576.473px 576.473px 576.473px ">orway</tspan></text>
    </g>
    <g transform="matrix(0.642786,-0.766046,0.766046,0.642786,-129.735,-288.397)">
        <text x="-163.666px" y="559.766px" style="font-family:'ArialMT', 'Arial', sans-serif;font-size:8.692px;">G<tspan x="-157.298px -152.857px -150.356px -143.508px -139.067px -134.626px " y="559.766px 559.766px 559.766px 559.766px 559.766px 559.766px ">ermany</tspan></text>
    </g>
    <g transform="matrix(0.642786,-0.766046,0.766046,0.642786,-129.735,-288.397)">
        <text x="-173.862px" y="541.296px" style="font-family:'ArialMT', 'Arial', sans-serif;font-size:8.692px;">F<tspan x="-168.843px -167.203px -162.659px -161.019px -156.475px -151.932px " y="541.296px 541.296px 541.296px 541.296px 541.296px 541.296px ">inland</tspan></text>
    </g>
    <g transform="matrix(0.642786,-0.766046,0.766046,0.642786,-129.735,-288.397)">
        <text x="-201.156px" y="526.58px" style="font-family:'ArialMT', 'Arial', sans-serif;font-size:8.692px;">S<tspan x="-195.62px -189.604px -187.934px -185.781px -181.696px -177.123px -174.49px -172.821px -168.248px -163.675px " y="526.58px 526.58px 526.58px 526.58px 526.58px 526.58px 526.58px 526.58px 526.58px 526.58px ">witzerland</tspan></text>
    </g>
    <g transform="matrix(0.642786,-0.766046,0.766046,0.642786,-129.735,-288.397)">
        <text x="-200.095px" y="508.231px" style="font-family:'ArialMT', 'Arial', sans-serif;font-size:8.692px;">I<tspan x="-197.914px -195.254px -190.653px -188.956px -184.356px -179.756px " y="508.231px 508.231px 508.231px 508.231px 508.231px 508.231px ">reland</tspan></text>
    </g>
    <g transform="matrix(0.642786,-0.766046,0.766046,0.642786,-129.735,-288.397)">
        <text x="-231.387px" y="491.759px" style="font-family:'ArialMT', 'Arial', sans-serif;font-size:8.692px;">N<tspan x="-225.265px -220.585px -218.325px -213.646px -208.966px -206.227px -204.45px -199.771px -195.092px -190.412px " y="491.759px 491.759px 491.759px 491.759px 491.759px 491.759px 491.759px 491.759px 491.759px 491.759px ">etherlands</tspan></text>
    </g>
    <g transform="matrix(0.642786,-0.766046,0.766046,0.642786,-129.735,-288.397)">
        <text x="-231.239px" y="474.183px" style="font-family:'ArialMT', 'Arial', sans-serif;font-size:8.692px;">S<tspan x="-225.93px -220.14px -215.794px -211.447px -207.101px " y="474.183px 474.183px 474.183px 474.183px 474.183px ">weden</tspan></text>
    </g>
    <g transform="matrix(0.642786,-0.766046,0.766046,0.642786,-129.735,-288.397)">
        <text x="-261.523px" y="458.842px" style="font-family:'ArialMT', 'Arial', sans-serif;font-size:8.692px;">G<tspan x="-255.04px -252.424px -247.868px -243.312px " y="458.842px 458.842px 458.842px 458.842px ">reat</tspan></text>
        <text x="-239.923px" y="458.842px" style="font-family:'ArialMT', 'Arial', sans-serif;font-size:8.692px;">B<tspan x="-234.404px -231.787px -230.135px -227.998px -223.442px -221.79px " y="458.842px 458.842px 458.842px 458.842px 458.842px 458.842px ">ritain</tspan></text>
    </g>
    <g transform="matrix(1,0,0,1,-129.735,-288.397)">
        <text x="201.884px" y="361.157px" style="font-family:'ArialMT', 'Arial', sans-serif;font-size:7.112px;">4<tspan x="205.467px 207.071px 210.653px " y="361.157px 361.157px 361.157px ">.99</tspan></text>
    </g>
    <g transform="matrix(1,0,0,1,-129.735,-288.397)">
        <text x="224.749px" y="359.144px" style="font-family:'ArialMT', 'Arial', sans-serif;font-size:7.112px;">5<tspan x="228.332px 229.935px 233.518px " y="359.144px 359.144px 359.144px ">.14</tspan></text>
    </g>
    <g transform="matrix(1,0,0,1,-129.735,-288.397)">
        <text x="247.251px" y="357.132px" style="font-family:'ArialMT', 'Arial', sans-serif;font-size:7.112px;">5<tspan x="250.833px 252.437px 256.019px " y="357.132px 357.132px 357.132px ">.25</tspan></text>
    </g>
    <g transform="matrix(1,0,0,1,-129.735,-288.397)">
        <text x="270.115px" y="349.814px" style="font-family:'ArialMT', 'Arial', sans-serif;font-size:7.112px;">5<tspan x="273.698px 275.301px 278.884px " y="349.814px 349.814px 349.814px ">.66</tspan></text>
    </g>
    <g transform="matrix(1,0,0,1,-129.735,-288.397)">
        <text x="292.432px" y="344.323px" style="font-family:'ArialMT', 'Arial', sans-serif;font-size:7.112px;">5<tspan x="296.015px 297.618px 301.201px " y="344.323px 344.323px 344.323px ">.99</tspan></text>
    </g>
    <g transform="matrix(1,0,0,1,-107.402,-297.626)">
        <text x="292.432px" y="344.323px" style="font-family:'ArialMT', 'Arial', sans-serif;font-size:7.112px;">6<tspan x="296.015px 297.618px 301.201px " y="344.323px 344.323px 344.323px ">.50</tspan></text>
    </g>
    <g transform="matrix(1,0,0,1,-84.4017,-297.626)">
        <text x="292.432px" y="344.323px" style="font-family:'ArialMT', 'Arial', sans-serif;font-size:7.112px;">6<tspan x="296.015px 297.618px 301.201px " y="344.323px 344.323px 344.323px ">.50</tspan></text>
    </g>
    <g transform="matrix(1,0,0,1,-129.735,-288.397)">
        <text x="382.602px" y="327.497px" style="font-family:'ArialMT', 'Arial', sans-serif;font-size:7.112px;">6<tspan x="386.185px 387.788px 391.371px " y="327.497px 327.497px 327.497px ">.90</tspan></text>
    </g>
    <g transform="matrix(1,0,0,1,-129.735,-288.397)">
        <text x="405.467px" y="323.472px" style="font-family:'ArialMT', 'Arial', sans-serif;font-size:7.112px;">7<tspan x="409.05px 410.653px 414.236px " y="323.472px 323.472px 323.472px ">.18</tspan></text>
    </g>
    <g transform="matrix(1,0,0,1,-129.735,-288.397)">
        <text x="360.286px" y="332.432px" style="font-family:'ArialMT', 'Arial', sans-serif;font-size:7.112px;">6<tspan x="363.868px 365.472px 369.054px " y="332.432px 332.432px 332.432px ">.65</tspan></text>
    </g>
    <g transform="matrix(1,0,0,1,-129.735,-288.397)">
        <text x="427.599px" y="313.771px" style="font-family:'ArialMT', 'Arial', sans-serif;font-size:7.112px;">7<tspan x="431.181px 432.785px 436.368px " y="313.771px 313.771px 313.771px ">.74</tspan></text>
    </g>
    <g transform="matrix(1,0,0,1,-129.735,-288.397)">
        <text x="450.648px" y="310.663px" style="font-family:'ArialMT', 'Arial', sans-serif;font-size:7.112px;">7<tspan x="454.231px 455.834px 459.417px " y="310.663px 310.663px 310.663px ">.91</tspan></text>
    </g>
    <g transform="matrix(1,0,0,1,-129.735,-288.397)">
        <text x="473.328px" y="305.543px" style="font-family:'ArialMT', 'Arial', sans-serif;font-size:7.112px;">8<tspan x="476.91px 478.514px 482.096px " y="305.543px 305.543px 305.543px ">.22</tspan></text>
    </g>
    <g transform="matrix(0,-1,1,0,-129.735,-288.397)">
        <text x="-402.312px" y="140.595px" style="font-family:'ArialMT', 'Arial', sans-serif;font-size:9.878px;">F<tspan x="-396.601px -391.43px -389.008px -383.837px -381.965px -380.093px -377.671px -373.055px -370.384px -363.573px -358.402px -355.98px " y="140.595px 140.595px 140.595px 140.595px 140.595px 140.595px 140.595px 140.595px 140.595px 140.595px 140.595px 140.595px ">atality Rate</tspan></text>
        <text x="-350.04px" y="140.595px" style="font-family:'ArialMT', 'Arial', sans-serif;font-size:9.878px;">/<tspan x="-347.618px -344.947px -338.681px -336.809px -334.937px -333.065px -331.193px -326.022px " y="140.595px 140.595px 140.595px 140.595px 140.595px 140.595px 140.595px 140.595px "> Billion</tspan></text>
        <text x="-315.182px" y="140.595px" style="font-family:'ArialMT', 'Arial', sans-serif;font-size:9.878px;">V<tspan x="-308.916px -302.65px " y="140.595px 140.595px ">KM</tspan></text>
    </g>
</svg>
